<svg width="100" height="72" viewBox="0 0 100 72" fill="none" xmlns="http://www.w3.org/2000/svg">
<circle cx="66.5" cy="22.5" r="22.5" fill="#FF5353"/>
<path d="M44 40V11.5" stroke="black" stroke-width="2" stroke-linecap="round" stroke-linejoin="round"/>
<path d="M68.6817 25.75L19.3183 54.25" stroke="black" stroke-width="2" stroke-linecap="round" stroke-linejoin="round"/>
<path d="M15.9752 45.2103C14.7412 38.5324 15.9285 31.6334 19.3236 25.7521C22.7188 19.8709 28.0996 15.3927 34.4995 13.1218V34.5153L15.9752 45.2103Z" stroke="black" stroke-width="2" stroke-linecap="round" stroke-linejoin="round"/>
<path d="M44 11.5C48.9933 11.5009 53.8986 12.8137 58.2249 15.3068C62.5512 17.8 66.1466 21.386 68.6509 25.7058C71.1553 30.0256 72.4808 34.9276 72.4946 39.9208C72.5085 44.9141 71.2103 49.8233 68.7299 54.157C66.2496 58.4906 62.6743 62.0966 58.3619 64.6137C54.0495 67.1309 49.1515 68.4709 44.1583 68.4995C39.1652 68.5282 34.2521 67.2445 29.9111 64.777C25.5701 62.3096 21.9536 58.7449 19.4237 54.44" stroke="black" stroke-width="2" stroke-linecap="round" stroke-linejoin="round"/>
</svg>
