<svg width="100" height="56" viewBox="0 0 100 56" fill="none" xmlns="http://www.w3.org/2000/svg">
<circle cx="70.5" cy="22.5" r="22.5" fill="#53C1FF"/>
<path d="M16.3975 51.1925C16.4716 51.5047 16.608 51.7987 16.7986 52.0568C16.9893 52.3149 17.2301 52.5317 17.5067 52.6943C17.7833 52.8569 18.09 52.9618 18.4082 53.0028C18.7264 53.0438 19.0497 53.02 19.3584 52.9328C33.5162 49.0238 48.4683 49.0224 62.6268 52.9287C62.9355 53.0158 63.2586 53.0396 63.5767 52.9986C63.8948 52.9576 64.2013 52.8527 64.4778 52.6902C64.7544 52.5277 64.9952 52.311 65.1858 52.0531C65.3764 51.7951 65.5129 51.5013 65.587 51.1892L73.154 19.0326C73.2553 18.6022 73.2344 18.1519 73.0936 17.7327C72.9529 17.3135 72.6978 16.9418 72.3573 16.6597C72.0167 16.3776 71.6042 16.1961 71.166 16.1358C70.7279 16.0755 70.2817 16.1387 69.8775 16.3183L54.8605 22.9926C54.3182 23.2336 53.7054 23.2629 53.1426 23.0746C52.5799 22.8864 52.108 22.4944 51.8198 21.9757L43.0761 6.23704C42.8704 5.8668 42.5695 5.55829 42.2044 5.3435C41.8394 5.12871 41.4235 5.01544 41 5.01544C40.5764 5.01544 40.1606 5.12871 39.7956 5.3435C39.4305 5.55829 39.1296 5.8668 38.9239 6.23704L30.1802 21.9757C29.892 22.4944 29.4201 22.8864 28.8573 23.0746C28.2946 23.2628 27.6817 23.2336 27.1395 22.9926L12.1202 16.3173C11.7161 16.1377 11.2699 16.0745 10.8319 16.1348C10.3939 16.195 9.98137 16.3764 9.64081 16.6584C9.30026 16.9404 9.04519 17.3119 8.90433 17.731C8.76346 18.1501 8.7424 18.6002 8.8435 19.0307L16.3975 51.1925Z" stroke="black" stroke-width="2" stroke-linecap="round" stroke-linejoin="round"/>
<path d="M31.5 40.9984C37.8159 40.3339 44.1841 40.3339 50.5 40.9984" stroke="black" stroke-width="2" stroke-linecap="round" stroke-linejoin="round"/>
</svg>
