<svg width="100" height="74" viewBox="0 0 100 74" fill="none" xmlns="http://www.w3.org/2000/svg">
<circle cx="52.5" cy="22.5" r="22.5" fill="#FFBA53"/>
<path d="M53.3984 53.3984C58.3129 53.3984 62.2969 49.4145 62.2969 44.5C62.2969 39.5855 58.3129 35.6016 53.3984 35.6016C48.484 35.6016 44.5 39.5855 44.5 44.5C44.5 49.4145 48.484 53.3984 53.3984 53.3984Z" stroke="black" stroke-width="2" stroke-linecap="round" stroke-linejoin="round"/>
<path d="M44.5 35.6016V17.8049H35.6016C33.2416 17.8049 30.9782 18.7424 29.3094 20.4112C27.6406 22.08 26.7031 24.3434 26.7031 26.7034C26.7031 29.0634 27.6406 31.3267 29.3094 32.9955C30.9782 34.6643 33.2416 35.6018 35.6016 35.6018L44.5 35.6016Z" stroke="black" stroke-width="2" stroke-linecap="round" stroke-linejoin="round"/>
<path d="M44.5 53.3982V35.6016H35.6016C33.2416 35.6016 30.9782 36.5391 29.3094 38.2079C27.6406 39.8766 26.7031 42.14 26.7031 44.5C26.7031 46.86 27.6406 49.1234 29.3094 50.7921C30.9782 52.4609 33.2416 53.3984 35.6016 53.3984L44.5 53.3982Z" stroke="black" stroke-width="2" stroke-linecap="round" stroke-linejoin="round"/>
<path d="M44.5 35.6016V17.8049H53.3984C55.7584 17.8049 58.0218 18.7424 59.6906 20.4112C61.3594 22.08 62.2969 24.3434 62.2969 26.7034C62.2969 29.0634 61.3594 31.3267 59.6906 32.9955C58.0218 34.6643 55.7584 35.6018 53.3984 35.6018L44.5 35.6016Z" stroke="black" stroke-width="2" stroke-linecap="round" stroke-linejoin="round"/>
<path d="M44.5 53.3982V62.2967C44.5 64.0567 43.9782 65.7771 43.0004 67.2405C42.0226 68.7038 40.6329 69.8444 39.0069 70.5179C37.381 71.1914 35.5918 71.3677 33.8656 71.0243C32.1395 70.681 30.5539 69.8335 29.3095 68.5891C28.065 67.3446 27.2175 65.759 26.8741 64.0329C26.5308 62.3068 26.707 60.5176 27.3805 58.8916C28.054 57.2656 29.1945 55.8759 30.6578 54.8981C32.1212 53.9203 33.8416 53.3984 35.6016 53.3984L44.5 53.3982Z" stroke="black" stroke-width="2" stroke-linecap="round" stroke-linejoin="round"/>
</svg>
