<svg width="100" height="65" viewBox="0 0 100 65" fill="none" xmlns="http://www.w3.org/2000/svg">
<circle cx="34.5" cy="25.5" r="22.5" fill="#7553FF"/>
<path d="M56.3095 52.6237L71.2826 62.11C73.1965 63.3226 75.5728 61.5192 75.0048 59.285L70.6788 42.2674C70.557 41.7935 70.5714 41.2947 70.7204 40.8286C70.8694 40.3624 71.147 39.9478 71.5212 39.6324L84.9481 28.457C86.7123 26.9886 85.8017 24.0607 83.535 23.9136L66.0004 22.7756C65.5281 22.7418 65.0752 22.5746 64.6942 22.2934C64.3133 22.0122 64.0201 21.6285 63.8487 21.1871L57.3091 4.71856C57.1313 4.25004 56.8152 3.84669 56.4028 3.56206C55.9904 3.27744 55.5011 3.125 55 3.125C54.4989 3.125 54.0097 3.27744 53.5972 3.56206C53.1848 3.84669 52.8687 4.25004 52.691 4.71856L46.1513 21.1871C45.98 21.6285 45.6867 22.0122 45.3058 22.2934C44.9249 22.5746 44.4719 22.7418 43.9996 22.7756L26.465 23.9136C24.1983 24.0607 23.2877 26.9886 25.052 28.457L38.4788 39.6324C38.853 39.9478 39.1306 40.3624 39.2796 40.8286C39.4286 41.2947 39.443 41.7935 39.3212 42.2674L35.3093 58.0494C34.6278 60.7303 37.4793 62.8945 39.776 61.4394L53.6905 52.6237C54.0818 52.3746 54.5361 52.2423 55 52.2423C55.4639 52.2423 55.9182 52.3746 56.3095 52.6237V52.6237Z" stroke="black" stroke-width="2" stroke-linecap="round" stroke-linejoin="round"/>
</svg>
